<svg width="107" height="27" viewBox="0 0 107 27" fill="none" xmlns="http://www.w3.org/2000/svg">
<rect width="107" height="27" fill="#161513"/>
<rect width="48.1334" height="19.807" rx="9.90349" transform="matrix(0.988429 -0.151686 -0.151686 -0.988429 60.428 27.879)" fill="#8D0065"/>
<path d="M11.832 24.352C10.1893 24.352 8.64267 24.0533 7.192 23.456C5.76267 22.8587 4.51467 22.0373 3.448 20.992C2.38133 19.9253 1.53867 18.688 0.92 17.28C0.322667 15.8507 0.024 14.3147 0.024 12.672C0.024 11.0293 0.333333 9.504 0.952 8.096C1.57067 6.688 2.424 5.46133 3.512 4.416C4.62133 3.34933 5.912 2.528 7.384 1.952C8.856 1.35467 10.4347 1.056 12.12 1.056C14.0613 1.056 15.8213 1.408 17.4 2.112C19 2.816 20.3227 3.78667 21.368 5.024L17.944 8.448C17.2187 7.50933 16.3653 6.80533 15.384 6.336C14.4027 5.86667 13.2933 5.632 12.056 5.632C10.7333 5.632 9.54933 5.93067 8.504 6.528C7.45867 7.104 6.63733 7.92533 6.04 8.992C5.464 10.0373 5.176 11.264 5.176 12.672C5.176 14.08 5.464 15.3173 6.04 16.384C6.616 17.4507 7.40533 18.2827 8.408 18.88C9.41067 19.4773 10.5627 19.776 11.864 19.776C13.1867 19.776 14.3067 19.5307 15.224 19.04C16.1627 18.528 16.8773 17.8027 17.368 16.864C17.88 15.904 18.136 14.7413 18.136 13.376L21.464 15.616L11.384 15.456V11.2H23.256V11.936C23.256 14.6453 22.7653 16.928 21.784 18.784C20.824 20.6187 19.48 22.0053 17.752 22.944C16.0453 23.8827 14.072 24.352 11.832 24.352ZM32.349 24.32C30.9197 24.32 29.6397 23.968 28.509 23.264C27.3997 22.56 26.5143 21.6 25.853 20.384C25.213 19.168 24.893 17.7813 24.893 16.224C24.893 14.6667 25.213 13.28 25.853 12.064C26.5143 10.848 27.3997 9.888 28.509 9.184C29.6397 8.48 30.9197 8.128 32.349 8.128C33.3943 8.128 34.333 8.33067 35.165 8.736C36.0183 9.14133 36.7117 9.70667 37.245 10.432C37.7783 11.136 38.077 11.9467 38.141 12.864V19.584C38.077 20.5013 37.7783 21.3227 37.245 22.048C36.733 22.752 36.0503 23.3067 35.197 23.712C34.3437 24.1173 33.3943 24.32 32.349 24.32ZM33.341 19.904C34.3863 19.904 35.229 19.5627 35.869 18.88C36.509 18.176 36.829 17.2907 36.829 16.224C36.829 15.4987 36.6797 14.8587 36.381 14.304C36.1037 13.7493 35.6983 13.3227 35.165 13.024C34.653 12.704 34.0557 12.544 33.373 12.544C32.6903 12.544 32.0823 12.704 31.549 13.024C31.037 13.3227 30.621 13.7493 30.301 14.304C30.0023 14.8587 29.853 15.4987 29.853 16.224C29.853 16.928 30.0023 17.5573 30.301 18.112C30.5997 18.6667 31.0157 19.104 31.549 19.424C32.0823 19.744 32.6797 19.904 33.341 19.904ZM36.637 24V19.808L37.373 16.032L36.637 12.256V8.448H41.437V24H36.637ZM44.8843 24V8.448H49.7803V24H44.8843ZM47.3483 6.304C46.5803 6.304 45.9403 6.048 45.4283 5.536C44.9376 5.00267 44.6923 4.36267 44.6923 3.616C44.6923 2.848 44.9376 2.208 45.4283 1.696C45.9403 1.184 46.5803 0.927999 47.3483 0.927999C48.1163 0.927999 48.7456 1.184 49.2363 1.696C49.7269 2.208 49.9723 2.848 49.9723 3.616C49.9723 4.36267 49.7269 5.00267 49.2363 5.536C48.7456 6.048 48.1163 6.304 47.3483 6.304ZM63.5 24V15.136C63.5 14.3253 63.244 13.6747 62.732 13.184C62.2413 12.672 61.612 12.416 60.844 12.416C60.3107 12.416 59.8413 12.5333 59.436 12.768C59.0307 12.9813 58.7107 13.3013 58.476 13.728C58.2413 14.1333 58.124 14.6027 58.124 15.136L56.236 14.208C56.236 12.992 56.5027 11.9253 57.036 11.008C57.5693 10.0907 58.3053 9.38667 59.244 8.896C60.204 8.384 61.2813 8.128 62.476 8.128C63.628 8.128 64.6413 8.40533 65.516 8.96C66.412 9.49333 67.116 10.208 67.628 11.104C68.14 12 68.396 12.9813 68.396 14.048V24H63.5ZM53.228 24V8.448H58.124V24H53.228ZM78.1645 24.32C76.6925 24.32 75.3805 23.968 74.2285 23.264C73.0978 22.56 72.2018 21.6 71.5405 20.384C70.9005 19.168 70.5805 17.7813 70.5805 16.224C70.5805 14.6667 70.9005 13.28 71.5405 12.064C72.2018 10.848 73.0978 9.888 74.2285 9.184C75.3805 8.48 76.6925 8.128 78.1645 8.128C79.2312 8.128 80.1912 8.33067 81.0445 8.736C81.9192 9.14133 82.6338 9.70667 83.1885 10.432C83.7645 11.136 84.0845 11.9467 84.1485 12.864V19.424C84.0845 20.3413 83.7752 21.1733 83.2205 21.92C82.6658 22.6453 81.9512 23.232 81.0765 23.68C80.2018 24.1067 79.2312 24.32 78.1645 24.32ZM79.0285 19.904C79.7325 19.904 80.3405 19.7547 80.8525 19.456C81.3645 19.136 81.7698 18.6987 82.0685 18.144C82.3672 17.5893 82.5165 16.9493 82.5165 16.224C82.5165 15.4987 82.3672 14.8693 82.0685 14.336C81.7912 13.7813 81.3858 13.344 80.8525 13.024C80.3405 12.704 79.7432 12.544 79.0605 12.544C78.3778 12.544 77.7698 12.704 77.2365 13.024C76.7245 13.344 76.3085 13.7813 75.9885 14.336C75.6898 14.8907 75.5405 15.52 75.5405 16.224C75.5405 16.928 75.6898 17.5573 75.9885 18.112C76.2872 18.6667 76.7032 19.104 77.2365 19.424C77.7698 19.744 78.3672 19.904 79.0285 19.904ZM87.1245 24H82.3245V19.808L83.0605 16.032L82.2285 12.256V0.768H87.1245V24ZM97.4838 24.352C96.0544 24.352 94.7851 24.064 93.6758 23.488C92.5878 22.8907 91.7344 22.08 91.1158 21.056C90.4971 20.0107 90.1878 18.816 90.1878 17.472V8.448H95.0838V17.408C95.0838 17.9413 95.1691 18.4 95.3398 18.784C95.5318 19.168 95.8091 19.4667 96.1718 19.68C96.5344 19.8933 96.9718 20 97.4838 20C98.2091 20 98.7851 19.776 99.2118 19.328C99.6384 18.8587 99.8518 18.2187 99.8518 17.408V8.448H104.748V17.44C104.748 18.8053 104.438 20.0107 103.82 21.056C103.201 22.08 102.348 22.8907 101.26 23.488C100.172 24.064 98.9131 24.352 97.4838 24.352Z" fill="white"/>
</svg>
